<?xml version="1.0" encoding="UTF-8" standalone="no"?>
<!DOCTYPE svg PUBLIC "-//W3C//DTD SVG 20010904//EN"
              "http://www.w3.org/TR/2001/REC-SVG-20010904/DTD/svg10.dtd">

<svg xmlns="http://www.w3.org/2000/svg"
     width="0.6in" height="0.6in"
     viewBox="0 0 128 128">
  <path id="Seleção"
        fill="#EDCD6C" stroke="white" stroke-width="1"
        d="M 60.00,15.44
           C 44.38,18.36 33.00,26.27 26.31,41.00
             22.21,50.03 23.50,52.97 22.26,55.95
             20.35,60.55 16.07,60.39 13.01,65.09
             10.14,69.50 10.99,78.68 11.00,84.00
             11.01,88.91 10.82,92.88 14.39,96.79
             17.39,100.07 25.81,103.88 29.40,99.68
             31.29,97.48 30.99,93.74 31.00,91.00
             31.00,91.00 31.00,59.00 31.00,59.00
             31.14,28.99 66.89,11.21 90.91,33.30
             102.58,44.03 102.00,54.74 102.00,69.00
             102.00,69.00 102.00,91.00 102.00,91.00
             102.01,93.74 101.71,97.48 103.60,99.68
             107.19,103.88 115.61,100.07 118.61,96.79
             122.18,92.88 121.99,88.91 122.00,84.00
             122.01,78.45 122.94,69.73 119.85,65.09
             116.63,60.25 112.66,60.51 110.73,55.95
             109.40,52.79 110.47,47.51 104.69,37.00
             95.79,20.84 77.90,13.14 60.00,15.44 Z
           M 66.06,46.17
           C 61.23,48.39 62.01,52.32 62.00,57.00
             62.00,57.00 62.00,106.00 62.00,106.00
             62.01,109.15 61.45,114.86 65.21,116.16
             70.44,117.95 70.95,111.31 71.00,108.00
             71.00,108.00 71.00,55.00 71.00,55.00
             70.94,50.60 71.09,47.06 66.06,46.17 Z
           M 51.31,57.08
           C 48.41,60.09 49.01,61.99 49.00,66.00
             49.00,66.00 49.00,98.00 49.00,98.00
             49.03,99.99 48.97,102.88 50.17,104.55
             50.88,105.54 51.82,106.14 53.05,106.14
             57.52,106.14 56.99,99.97 57.00,97.00
             57.00,97.00 57.00,66.00 57.00,66.00
             56.99,61.55 57.61,55.68 51.31,57.08 Z
           M 78.31,57.08
           C 75.41,60.09 76.01,61.99 76.00,66.00
             76.00,66.00 76.00,98.00 76.00,98.00
             76.01,99.92 75.87,102.94 77.02,104.55
             77.72,105.54 78.73,106.14 79.95,106.14
             84.56,106.14 84.00,99.03 84.00,96.00
             84.00,96.00 84.00,66.00 84.00,66.00
             83.99,61.55 84.61,55.68 78.31,57.08 Z
           M 38.31,70.08
           C 34.93,73.58 35.55,83.16 36.11,87.98
             36.46,91.00 38.23,94.18 41.70,91.96
             44.04,90.46 43.95,87.45 44.00,85.00
             44.09,80.12 46.00,68.38 38.31,70.08 Z
           M 91.31,70.08
           C 90.53,70.88 90.39,70.33 89.37,72.15
             88.79,73.98 88.78,85.70 89.37,87.98
             89.61,90.85 92.27,94.23 95.26,91.99
             97.09,90.62 96.97,87.05 97.00,85.00
             97.06,80.12 99.01,68.37 91.31,70.08 Z" />
</svg>
